<mxfile host="app.diagrams.net" modified="2021-08-09T17:59:44.785Z" agent="5.0 (Windows NT 10.0; Win64; x64) AppleWebKit/537.36 (KHTML, like Gecko) Chrome/92.0.4515.131 Safari/537.36" etag="sfpe1Hyq9YnRMPSQtOxe" version="14.9.5" type="github">
  <diagram id="rntNpqc2BQt3fNiALKQF" name="Page-1">
    <mxGraphModel dx="1320" dy="484" grid="1" gridSize="10" guides="1" tooltips="1" connect="1" arrows="1" fold="1" page="1" pageScale="1" pageWidth="827" pageHeight="1169" math="0" shadow="0">
      <root>
        <mxCell id="0" />
        <mxCell id="1" parent="0" />
        <mxCell id="lPsyVJBVWEcAc62OBKdZ-1" value="" style="rounded=0;whiteSpace=wrap;html=1;" vertex="1" parent="1">
          <mxGeometry x="240" y="80" width="350" height="310" as="geometry" />
        </mxCell>
        <mxCell id="lPsyVJBVWEcAc62OBKdZ-2" value="CBS" style="text;html=1;align=center;verticalAlign=middle;resizable=0;points=[];autosize=1;strokeColor=none;" vertex="1" parent="1">
          <mxGeometry x="395" y="60" width="40" height="20" as="geometry" />
        </mxCell>
        <mxCell id="lPsyVJBVWEcAc62OBKdZ-12" style="edgeStyle=orthogonalEdgeStyle;rounded=0;orthogonalLoop=1;jettySize=auto;html=1;exitX=0.5;exitY=1;exitDx=0;exitDy=0;entryX=0;entryY=0.5;entryDx=0;entryDy=0;" edge="1" parent="1" source="lPsyVJBVWEcAc62OBKdZ-3" target="lPsyVJBVWEcAc62OBKdZ-11">
          <mxGeometry relative="1" as="geometry" />
        </mxCell>
        <mxCell id="lPsyVJBVWEcAc62OBKdZ-3" value="Funding" style="rounded=0;whiteSpace=wrap;html=1;" vertex="1" parent="1">
          <mxGeometry x="264" y="100" width="120" height="60" as="geometry" />
        </mxCell>
        <mxCell id="lPsyVJBVWEcAc62OBKdZ-4" value="Loan" style="rounded=0;whiteSpace=wrap;html=1;" vertex="1" parent="1">
          <mxGeometry x="450" y="100" width="120" height="60" as="geometry" />
        </mxCell>
        <mxCell id="lPsyVJBVWEcAc62OBKdZ-6" value="100M" style="edgeStyle=orthogonalEdgeStyle;rounded=0;orthogonalLoop=1;jettySize=auto;html=1;exitX=1;exitY=0.3333333333333333;exitDx=0;exitDy=0;exitPerimeter=0;entryX=0;entryY=0.5;entryDx=0;entryDy=0;" edge="1" parent="1" source="lPsyVJBVWEcAc62OBKdZ-5" target="lPsyVJBVWEcAc62OBKdZ-3">
          <mxGeometry relative="1" as="geometry" />
        </mxCell>
        <mxCell id="lPsyVJBVWEcAc62OBKdZ-10" value="100M" style="edgeStyle=orthogonalEdgeStyle;rounded=0;orthogonalLoop=1;jettySize=auto;html=1;entryX=0;entryY=0.5;entryDx=0;entryDy=0;exitX=0.5;exitY=0.5;exitDx=0;exitDy=0;exitPerimeter=0;" edge="1" parent="1" source="lPsyVJBVWEcAc62OBKdZ-5" target="lPsyVJBVWEcAc62OBKdZ-9">
          <mxGeometry relative="1" as="geometry">
            <Array as="points">
              <mxPoint x="220" y="140" />
              <mxPoint x="220" y="330" />
            </Array>
          </mxGeometry>
        </mxCell>
        <mxCell id="lPsyVJBVWEcAc62OBKdZ-5" value="P&#39;Mai" style="shape=umlActor;verticalLabelPosition=bottom;verticalAlign=top;html=1;outlineConnect=0;" vertex="1" parent="1">
          <mxGeometry x="100" y="110" width="30" height="60" as="geometry" />
        </mxCell>
        <mxCell id="lPsyVJBVWEcAc62OBKdZ-8" style="edgeStyle=orthogonalEdgeStyle;rounded=0;orthogonalLoop=1;jettySize=auto;html=1;exitX=0.5;exitY=0.5;exitDx=0;exitDy=0;exitPerimeter=0;entryX=1;entryY=0.5;entryDx=0;entryDy=0;" edge="1" parent="1" source="lPsyVJBVWEcAc62OBKdZ-7" target="lPsyVJBVWEcAc62OBKdZ-4">
          <mxGeometry relative="1" as="geometry" />
        </mxCell>
        <mxCell id="lPsyVJBVWEcAc62OBKdZ-7" value="Ping" style="shape=umlActor;verticalLabelPosition=bottom;verticalAlign=top;html=1;outlineConnect=0;" vertex="1" parent="1">
          <mxGeometry x="690" y="100" width="30" height="60" as="geometry" />
        </mxCell>
        <mxCell id="lPsyVJBVWEcAc62OBKdZ-9" value="General Ledger&lt;br&gt;GL&lt;br&gt;บัญชีพักเงินสด" style="rounded=0;whiteSpace=wrap;html=1;" vertex="1" parent="1">
          <mxGeometry x="355" y="300" width="120" height="60" as="geometry" />
        </mxCell>
        <mxCell id="lPsyVJBVWEcAc62OBKdZ-11" value="General Ledger&lt;br&gt;GL&lt;br&gt;บัญชีรายได้" style="rounded=0;whiteSpace=wrap;html=1;" vertex="1" parent="1">
          <mxGeometry x="354" y="180" width="120" height="60" as="geometry" />
        </mxCell>
        <mxCell id="lPsyVJBVWEcAc62OBKdZ-13" value="General Ledger&lt;br&gt;GL&lt;br&gt;บัญชีรายได้" style="rounded=0;whiteSpace=wrap;html=1;" vertex="1" parent="1">
          <mxGeometry x="364" y="190" width="120" height="60" as="geometry" />
        </mxCell>
        <mxCell id="lPsyVJBVWEcAc62OBKdZ-14" value="General Ledger&lt;br&gt;GL&lt;br&gt;บัญชีรายได้" style="rounded=0;whiteSpace=wrap;html=1;" vertex="1" parent="1">
          <mxGeometry x="374" y="200" width="120" height="60" as="geometry" />
        </mxCell>
        <mxCell id="lPsyVJBVWEcAc62OBKdZ-15" value="General Ledger&lt;br&gt;GL&lt;br&gt;บัญชีรายได้" style="rounded=0;whiteSpace=wrap;html=1;" vertex="1" parent="1">
          <mxGeometry x="384" y="210" width="120" height="60" as="geometry" />
        </mxCell>
        <mxCell id="lPsyVJBVWEcAc62OBKdZ-16" value="General Ledger&lt;br&gt;GL&lt;br&gt;บัญชีรายได้" style="rounded=0;whiteSpace=wrap;html=1;" vertex="1" parent="1">
          <mxGeometry x="394" y="220" width="120" height="60" as="geometry" />
        </mxCell>
        <mxCell id="lPsyVJBVWEcAc62OBKdZ-17" style="edgeStyle=orthogonalEdgeStyle;rounded=0;orthogonalLoop=1;jettySize=auto;html=1;exitX=0.25;exitY=1;exitDx=0;exitDy=0;entryX=0;entryY=0.5;entryDx=0;entryDy=0;" edge="1" parent="1" source="lPsyVJBVWEcAc62OBKdZ-3" target="lPsyVJBVWEcAc62OBKdZ-13">
          <mxGeometry relative="1" as="geometry" />
        </mxCell>
        <mxCell id="lPsyVJBVWEcAc62OBKdZ-18" value="" style="rounded=0;whiteSpace=wrap;html=1;" vertex="1" parent="1">
          <mxGeometry x="800" y="90" width="350" height="190" as="geometry" />
        </mxCell>
        <mxCell id="lPsyVJBVWEcAc62OBKdZ-19" value="SAP" style="text;html=1;align=center;verticalAlign=middle;resizable=0;points=[];autosize=1;strokeColor=none;" vertex="1" parent="1">
          <mxGeometry x="955" y="60" width="40" height="20" as="geometry" />
        </mxCell>
        <mxCell id="lPsyVJBVWEcAc62OBKdZ-28" style="edgeStyle=orthogonalEdgeStyle;rounded=0;orthogonalLoop=1;jettySize=auto;html=1;exitX=0;exitY=0.5;exitDx=0;exitDy=0;entryX=1;entryY=0.5;entryDx=0;entryDy=0;" edge="1" parent="1" source="lPsyVJBVWEcAc62OBKdZ-20" target="lPsyVJBVWEcAc62OBKdZ-27">
          <mxGeometry relative="1" as="geometry" />
        </mxCell>
        <mxCell id="lPsyVJBVWEcAc62OBKdZ-20" value="FI" style="rounded=0;whiteSpace=wrap;html=1;" vertex="1" parent="1">
          <mxGeometry x="835" y="110" width="95" height="30" as="geometry" />
        </mxCell>
        <mxCell id="lPsyVJBVWEcAc62OBKdZ-21" value="CO" style="rounded=0;whiteSpace=wrap;html=1;" vertex="1" parent="1">
          <mxGeometry x="835" y="150" width="95" height="30" as="geometry" />
        </mxCell>
        <mxCell id="lPsyVJBVWEcAc62OBKdZ-22" value="Enterpriase Resource Planning" style="text;html=1;align=center;verticalAlign=middle;resizable=0;points=[];autosize=1;strokeColor=none;" vertex="1" parent="1">
          <mxGeometry x="1061" y="10" width="180" height="20" as="geometry" />
        </mxCell>
        <mxCell id="lPsyVJBVWEcAc62OBKdZ-23" value="Open ERP" style="rounded=0;whiteSpace=wrap;html=1;" vertex="1" parent="1">
          <mxGeometry x="1170" y="90" width="190" height="60" as="geometry" />
        </mxCell>
        <mxCell id="lPsyVJBVWEcAc62OBKdZ-24" value="WH" style="rounded=0;whiteSpace=wrap;html=1;" vertex="1" parent="1">
          <mxGeometry x="835" y="190" width="95" height="30" as="geometry" />
        </mxCell>
        <mxCell id="lPsyVJBVWEcAc62OBKdZ-25" value="MM" style="rounded=0;whiteSpace=wrap;html=1;" vertex="1" parent="1">
          <mxGeometry x="835" y="230" width="95" height="30" as="geometry" />
        </mxCell>
        <mxCell id="lPsyVJBVWEcAc62OBKdZ-27" value="Nosto Account" style="rounded=0;whiteSpace=wrap;html=1;" vertex="1" parent="1">
          <mxGeometry x="560" y="185" width="60" height="70" as="geometry" />
        </mxCell>
        <mxCell id="lPsyVJBVWEcAc62OBKdZ-30" value="Washed&lt;br&gt;Account" style="rounded=0;whiteSpace=wrap;html=1;" vertex="1" parent="1">
          <mxGeometry x="484" y="300" width="120" height="60" as="geometry" />
        </mxCell>
        <mxCell id="lPsyVJBVWEcAc62OBKdZ-32" value="CRM&lt;br&gt;Customer Relation Management" style="text;html=1;align=center;verticalAlign=middle;resizable=0;points=[];autosize=1;strokeColor=none;" vertex="1" parent="1">
          <mxGeometry x="865" y="395" width="190" height="30" as="geometry" />
        </mxCell>
        <mxCell id="lPsyVJBVWEcAc62OBKdZ-33" value="" style="rounded=0;whiteSpace=wrap;html=1;" vertex="1" parent="1">
          <mxGeometry x="790" y="445" width="520" height="265" as="geometry" />
        </mxCell>
        <mxCell id="lPsyVJBVWEcAc62OBKdZ-41" value="subscribe" style="edgeStyle=orthogonalEdgeStyle;rounded=0;orthogonalLoop=1;jettySize=auto;html=1;exitX=1;exitY=0.5;exitDx=0;exitDy=0;entryX=0;entryY=0.5;entryDx=0;entryDy=0;" edge="1" parent="1" source="lPsyVJBVWEcAc62OBKdZ-34" target="lPsyVJBVWEcAc62OBKdZ-37">
          <mxGeometry relative="1" as="geometry">
            <Array as="points">
              <mxPoint x="940" y="475" />
              <mxPoint x="940" y="545" />
            </Array>
          </mxGeometry>
        </mxCell>
        <mxCell id="lPsyVJBVWEcAc62OBKdZ-34" value="Customer" style="rounded=0;whiteSpace=wrap;html=1;" vertex="1" parent="1">
          <mxGeometry x="820" y="460" width="95" height="30" as="geometry" />
        </mxCell>
        <mxCell id="lPsyVJBVWEcAc62OBKdZ-35" value="Housewhole" style="rounded=0;whiteSpace=wrap;html=1;" vertex="1" parent="1">
          <mxGeometry x="950" y="460" width="95" height="30" as="geometry" />
        </mxCell>
        <mxCell id="lPsyVJBVWEcAc62OBKdZ-36" value="Group" style="rounded=0;whiteSpace=wrap;html=1;" vertex="1" parent="1">
          <mxGeometry x="820" y="510" width="95" height="30" as="geometry" />
        </mxCell>
        <mxCell id="lPsyVJBVWEcAc62OBKdZ-42" style="edgeStyle=orthogonalEdgeStyle;rounded=0;orthogonalLoop=1;jettySize=auto;html=1;exitX=0.5;exitY=1;exitDx=0;exitDy=0;entryX=0;entryY=0.5;entryDx=0;entryDy=0;" edge="1" parent="1" source="lPsyVJBVWEcAc62OBKdZ-37" target="lPsyVJBVWEcAc62OBKdZ-40">
          <mxGeometry relative="1" as="geometry">
            <Array as="points">
              <mxPoint x="1138" y="570" />
            </Array>
          </mxGeometry>
        </mxCell>
        <mxCell id="lPsyVJBVWEcAc62OBKdZ-43" style="edgeStyle=orthogonalEdgeStyle;rounded=0;orthogonalLoop=1;jettySize=auto;html=1;exitX=0.5;exitY=0;exitDx=0;exitDy=0;entryX=0.5;entryY=0;entryDx=0;entryDy=0;" edge="1" parent="1" source="lPsyVJBVWEcAc62OBKdZ-37" target="lPsyVJBVWEcAc62OBKdZ-39">
          <mxGeometry relative="1" as="geometry">
            <Array as="points">
              <mxPoint x="1138" y="500" />
              <mxPoint x="1248" y="500" />
            </Array>
          </mxGeometry>
        </mxCell>
        <mxCell id="lPsyVJBVWEcAc62OBKdZ-37" value="Product" style="rounded=0;whiteSpace=wrap;html=1;" vertex="1" parent="1">
          <mxGeometry x="1090" y="530" width="95" height="30" as="geometry" />
        </mxCell>
        <mxCell id="lPsyVJBVWEcAc62OBKdZ-38" value="Billing" style="rounded=0;whiteSpace=wrap;html=1;" vertex="1" parent="1">
          <mxGeometry x="1090" y="460" width="95" height="30" as="geometry" />
        </mxCell>
        <mxCell id="lPsyVJBVWEcAc62OBKdZ-39" value="Compatibility" style="rounded=0;whiteSpace=wrap;html=1;" vertex="1" parent="1">
          <mxGeometry x="1200" y="510" width="95" height="30" as="geometry" />
        </mxCell>
        <mxCell id="lPsyVJBVWEcAc62OBKdZ-40" value="Eligibility" style="rounded=0;whiteSpace=wrap;html=1;" vertex="1" parent="1">
          <mxGeometry x="1200" y="555" width="95" height="30" as="geometry" />
        </mxCell>
        <mxCell id="lPsyVJBVWEcAc62OBKdZ-44" value="Reward" style="rounded=0;whiteSpace=wrap;html=1;" vertex="1" parent="1">
          <mxGeometry x="827" y="585" width="95" height="30" as="geometry" />
        </mxCell>
        <mxCell id="lPsyVJBVWEcAc62OBKdZ-45" value="Escalate" style="rounded=0;whiteSpace=wrap;html=1;" vertex="1" parent="1">
          <mxGeometry x="955" y="585" width="95" height="30" as="geometry" />
        </mxCell>
        <mxCell id="lPsyVJBVWEcAc62OBKdZ-46" value="TT" style="rounded=0;whiteSpace=wrap;html=1;" vertex="1" parent="1">
          <mxGeometry x="955" y="630" width="95" height="30" as="geometry" />
        </mxCell>
        <mxCell id="lPsyVJBVWEcAc62OBKdZ-47" value="SR" style="rounded=0;whiteSpace=wrap;html=1;" vertex="1" parent="1">
          <mxGeometry x="1070" y="630" width="95" height="30" as="geometry" />
        </mxCell>
        <mxCell id="lPsyVJBVWEcAc62OBKdZ-48" value="" style="rounded=0;whiteSpace=wrap;html=1;" vertex="1" parent="1">
          <mxGeometry x="610" y="445" width="180" height="265" as="geometry" />
        </mxCell>
        <mxCell id="lPsyVJBVWEcAc62OBKdZ-49" value="SaleLead&lt;br&gt;Accuire" style="text;html=1;align=center;verticalAlign=middle;resizable=0;points=[];autosize=1;strokeColor=none;" vertex="1" parent="1">
          <mxGeometry x="670" y="395" width="70" height="30" as="geometry" />
        </mxCell>
        <mxCell id="lPsyVJBVWEcAc62OBKdZ-50" value="Account&lt;br&gt;(Topup)" style="rounded=0;whiteSpace=wrap;html=1;" vertex="1" parent="1">
          <mxGeometry x="630" y="10" width="120" height="40" as="geometry" />
        </mxCell>
        <mxCell id="lPsyVJBVWEcAc62OBKdZ-51" value="HRIS" style="text;html=1;align=center;verticalAlign=middle;resizable=0;points=[];autosize=1;strokeColor=none;" vertex="1" parent="1">
          <mxGeometry x="490" y="10" width="40" height="20" as="geometry" />
        </mxCell>
        <mxCell id="lPsyVJBVWEcAc62OBKdZ-52" value="HRMS" style="text;html=1;align=center;verticalAlign=middle;resizable=0;points=[];autosize=1;strokeColor=none;" vertex="1" parent="1">
          <mxGeometry x="394" y="10" width="50" height="20" as="geometry" />
        </mxCell>
        <mxCell id="lPsyVJBVWEcAc62OBKdZ-63" style="rounded=0;orthogonalLoop=1;jettySize=auto;html=1;exitX=0.5;exitY=0;exitDx=0;exitDy=0;" edge="1" parent="1" source="lPsyVJBVWEcAc62OBKdZ-53" target="lPsyVJBVWEcAc62OBKdZ-62">
          <mxGeometry relative="1" as="geometry" />
        </mxCell>
        <mxCell id="lPsyVJBVWEcAc62OBKdZ-53" value="ERP" style="ellipse;whiteSpace=wrap;html=1;aspect=fixed;fillColor=none;" vertex="1" parent="1">
          <mxGeometry x="284" y="810" width="170" height="170" as="geometry" />
        </mxCell>
        <mxCell id="lPsyVJBVWEcAc62OBKdZ-72" style="edgeStyle=none;rounded=0;orthogonalLoop=1;jettySize=auto;html=1;exitX=1;exitY=0;exitDx=0;exitDy=0;entryX=0.5;entryY=1;entryDx=0;entryDy=0;" edge="1" parent="1" source="lPsyVJBVWEcAc62OBKdZ-54" target="lPsyVJBVWEcAc62OBKdZ-62">
          <mxGeometry relative="1" as="geometry" />
        </mxCell>
        <mxCell id="lPsyVJBVWEcAc62OBKdZ-54" value="CRM" style="ellipse;whiteSpace=wrap;html=1;aspect=fixed;fillColor=none;" vertex="1" parent="1">
          <mxGeometry x="114" y="730" width="170" height="170" as="geometry" />
        </mxCell>
        <mxCell id="lPsyVJBVWEcAc62OBKdZ-71" style="edgeStyle=none;rounded=0;orthogonalLoop=1;jettySize=auto;html=1;exitX=0;exitY=0;exitDx=0;exitDy=0;entryX=0.798;entryY=0.936;entryDx=0;entryDy=0;entryPerimeter=0;" edge="1" parent="1" source="lPsyVJBVWEcAc62OBKdZ-55" target="lPsyVJBVWEcAc62OBKdZ-62">
          <mxGeometry relative="1" as="geometry" />
        </mxCell>
        <mxCell id="lPsyVJBVWEcAc62OBKdZ-55" value="HRMS" style="ellipse;whiteSpace=wrap;html=1;aspect=fixed;fillColor=none;" vertex="1" parent="1">
          <mxGeometry x="374" y="710" width="80" height="80" as="geometry" />
        </mxCell>
        <mxCell id="lPsyVJBVWEcAc62OBKdZ-56" value="Customer" style="shape=umlActor;verticalLabelPosition=bottom;verticalAlign=top;html=1;outlineConnect=0;fillColor=none;" vertex="1" parent="1">
          <mxGeometry x="170" y="735" width="15" height="30" as="geometry" />
        </mxCell>
        <mxCell id="lPsyVJBVWEcAc62OBKdZ-57" value="Employee&lt;br&gt;&amp;lt;Payroll&amp;gt;" style="shape=umlActor;verticalLabelPosition=bottom;verticalAlign=top;html=1;outlineConnect=0;fillColor=none;" vertex="1" parent="1">
          <mxGeometry x="454" y="700" width="15" height="30" as="geometry" />
        </mxCell>
        <mxCell id="lPsyVJBVWEcAc62OBKdZ-58" value="Employee&lt;br&gt;&amp;lt;Responsibility Owner&amp;gt;" style="shape=umlActor;verticalLabelPosition=bottom;verticalAlign=top;html=1;outlineConnect=0;fillColor=none;" vertex="1" parent="1">
          <mxGeometry x="426.5" y="870" width="15" height="30" as="geometry" />
        </mxCell>
        <mxCell id="lPsyVJBVWEcAc62OBKdZ-61" value="Sale Lead" style="ellipse;whiteSpace=wrap;html=1;aspect=fixed;fillColor=none;" vertex="1" parent="1">
          <mxGeometry x="115" y="787.5" width="55" height="55" as="geometry" />
        </mxCell>
        <mxCell id="lPsyVJBVWEcAc62OBKdZ-62" value="e-Wallet" style="ellipse;whiteSpace=wrap;html=1;aspect=fixed;fillColor=none;" vertex="1" parent="1">
          <mxGeometry x="250" y="606" width="94" height="94" as="geometry" />
        </mxCell>
        <mxCell id="lPsyVJBVWEcAc62OBKdZ-64" value="Doctor&lt;span style=&quot;color: rgba(0 , 0 , 0 , 0) ; font-family: monospace ; font-size: 0px&quot;&gt;%3CmxGraphModel%3E%3Croot%3E%3CmxCell%20id%3D%220%22%2F%3E%3CmxCell%20id%3D%221%22%20parent%3D%220%22%2F%3E%3CmxCell%20id%3D%222%22%20value%3D%22Employee%26lt%3Bbr%26gt%3B%26amp%3Blt%3BPayroll%26amp%3Bgt%3B%22%20style%3D%22shape%3DumlActor%3BverticalLabelPosition%3Dbottom%3BverticalAlign%3Dtop%3Bhtml%3D1%3BoutlineConnect%3D0%3BfillColor%3Dnone%3B%22%20vertex%3D%221%22%20parent%3D%221%22%3E%3CmxGeometry%20x%3D%22454%22%20y%3D%22700%22%20width%3D%2215%22%20height%3D%2230%22%20as%3D%22geometry%22%2F%3E%3C%2FmxCell%3E%3C%2Froot%3E%3C%2FmxGraphModel%3E&lt;/span&gt;&lt;span style=&quot;color: rgba(0 , 0 , 0 , 0) ; font-family: monospace ; font-size: 0px&quot;&gt;%3CmxGraphModel%3E%3Croot%3E%3CmxCell%20id%3D%220%22%2F%3E%3CmxCell%20id%3D%221%22%20parent%3D%220%22%2F%3E%3CmxCell%20id%3D%222%22%20value%3D%22Employee%26lt%3Bbr%26gt%3B%26amp%3Blt%3BPayroll%26amp%3Bgt%3B%22%20style%3D%22shape%3DumlActor%3BverticalLabelPosition%3Dbottom%3BverticalAlign%3Dtop%3Bhtml%3D1%3BoutlineConnect%3D0%3BfillColor%3Dnone%3B%22%20vertex%3D%221%22%20parent%3D%221%22%3E%3CmxGeometry%20x%3D%22454%22%20y%3D%22700%22%20width%3D%2215%22%20height%3D%2230%22%20as%3D%22geometry%22%2F%3E%3C%2FmxCell%3E%3C%2Froot%3E%3C%2FmxGraphModel%3E&lt;/span&gt;" style="shape=umlActor;verticalLabelPosition=bottom;verticalAlign=top;html=1;outlineConnect=0;fillColor=none;" vertex="1" parent="1">
          <mxGeometry x="515" y="820" width="15" height="30" as="geometry" />
        </mxCell>
        <mxCell id="lPsyVJBVWEcAc62OBKdZ-65" value="Doctor&lt;span style=&quot;color: rgba(0 , 0 , 0 , 0) ; font-family: monospace ; font-size: 0px&quot;&gt;%3CmxGraphModel%3E%3Croot%3E%3CmxCell%20id%3D%220%22%2F%3E%3CmxCell%20id%3D%221%22%20parent%3D%220%22%2F%3E%3CmxCell%20id%3D%222%22%20value%3D%22Employee%26lt%3Bbr%26gt%3B%26amp%3Blt%3BPayroll%26amp%3Bgt%3B%22%20style%3D%22shape%3DumlActor%3BverticalLabelPosition%3Dbottom%3BverticalAlign%3Dtop%3Bhtml%3D1%3BoutlineConnect%3D0%3BfillColor%3Dnone%3B%22%20vertex%3D%221%22%20parent%3D%221%22%3E%3CmxGeometry%20x%3D%22454%22%20y%3D%22700%22%20width%3D%2215%22%20height%3D%2230%22%20as%3D%22geometry%22%2F%3E%3C%2FmxCell%3E%3C%2Froot%3E%3C%2FmxGraphModel%3E&lt;/span&gt;&lt;span style=&quot;color: rgba(0 , 0 , 0 , 0) ; font-family: monospace ; font-size: 0px&quot;&gt;%3CmxGraphModel%3E%3Croot%3E%3CmxCell%20id%3D%220%22%2F%3E%3CmxCell%20id%3D%221%22%20parent%3D%220%22%2F%3E%3CmxCell%20id%3D%222%22%20value%3D%22Employee%26lt%3Bbr%26gt%3B%26amp%3Blt%3BPayroll%26amp%3Bgt%3B%22%20style%3D%22shape%3DumlActor%3BverticalLabelPosition%3Dbottom%3BverticalAlign%3Dtop%3Bhtml%3D1%3BoutlineConnect%3D0%3BfillColor%3Dnone%3B%22%20vertex%3D%221%22%20parent%3D%221%22%3E%3CmxGeometry%20x%3D%22454%22%20y%3D%22700%22%20width%3D%2215%22%20height%3D%2230%22%20as%3D%22geometry%22%2F%3E%3C%2FmxCell%3E%3C%2Froot%3E%3C%2FmxGraphModel%3E&lt;/span&gt;" style="shape=umlActor;verticalLabelPosition=bottom;verticalAlign=top;html=1;outlineConnect=0;fillColor=none;" vertex="1" parent="1">
          <mxGeometry x="555" y="840" width="15" height="30" as="geometry" />
        </mxCell>
        <mxCell id="lPsyVJBVWEcAc62OBKdZ-66" value="Doctor&lt;span style=&quot;color: rgba(0 , 0 , 0 , 0) ; font-family: monospace ; font-size: 0px&quot;&gt;%3CmxGraphModel%3E%3Croot%3E%3CmxCell%20id%3D%220%22%2F%3E%3CmxCell%20id%3D%221%22%20parent%3D%220%22%2F%3E%3CmxCell%20id%3D%222%22%20value%3D%22Employee%26lt%3Bbr%26gt%3B%26amp%3Blt%3BPayroll%26amp%3Bgt%3B%22%20style%3D%22shape%3DumlActor%3BverticalLabelPosition%3Dbottom%3BverticalAlign%3Dtop%3Bhtml%3D1%3BoutlineConnect%3D0%3BfillColor%3Dnone%3B%22%20vertex%3D%221%22%20parent%3D%221%22%3E%3CmxGeometry%20x%3D%22454%22%20y%3D%22700%22%20width%3D%2215%22%20height%3D%2230%22%20as%3D%22geometry%22%2F%3E%3C%2FmxCell%3E%3C%2Froot%3E%3C%2FmxGraphModel%3E&lt;/span&gt;&lt;span style=&quot;color: rgba(0 , 0 , 0 , 0) ; font-family: monospace ; font-size: 0px&quot;&gt;%3CmxGraphModel%3E%3Croot%3E%3CmxCell%20id%3D%220%22%2F%3E%3CmxCell%20id%3D%221%22%20parent%3D%220%22%2F%3E%3CmxCell%20id%3D%222%22%20value%3D%22Employee%26lt%3Bbr%26gt%3B%26amp%3Blt%3BPayroll%26amp%3Bgt%3B%22%20style%3D%22shape%3DumlActor%3BverticalLabelPosition%3Dbottom%3BverticalAlign%3Dtop%3Bhtml%3D1%3BoutlineConnect%3D0%3BfillColor%3Dnone%3B%22%20vertex%3D%221%22%20parent%3D%221%22%3E%3CmxGeometry%20x%3D%22454%22%20y%3D%22700%22%20width%3D%2215%22%20height%3D%2230%22%20as%3D%22geometry%22%2F%3E%3C%2FmxCell%3E%3C%2Froot%3E%3C%2FmxGraphModel%3E&lt;/span&gt;" style="shape=umlActor;verticalLabelPosition=bottom;verticalAlign=top;html=1;outlineConnect=0;fillColor=none;" vertex="1" parent="1">
          <mxGeometry x="565" y="850" width="15" height="30" as="geometry" />
        </mxCell>
        <mxCell id="lPsyVJBVWEcAc62OBKdZ-67" value="Doctor&lt;span style=&quot;color: rgba(0 , 0 , 0 , 0) ; font-family: monospace ; font-size: 0px&quot;&gt;%3CmxGraphModel%3E%3Croot%3E%3CmxCell%20id%3D%220%22%2F%3E%3CmxCell%20id%3D%221%22%20parent%3D%220%22%2F%3E%3CmxCell%20id%3D%222%22%20value%3D%22Employee%26lt%3Bbr%26gt%3B%26amp%3Blt%3BPayroll%26amp%3Bgt%3B%22%20style%3D%22shape%3DumlActor%3BverticalLabelPosition%3Dbottom%3BverticalAlign%3Dtop%3Bhtml%3D1%3BoutlineConnect%3D0%3BfillColor%3Dnone%3B%22%20vertex%3D%221%22%20parent%3D%221%22%3E%3CmxGeometry%20x%3D%22454%22%20y%3D%22700%22%20width%3D%2215%22%20height%3D%2230%22%20as%3D%22geometry%22%2F%3E%3C%2FmxCell%3E%3C%2Froot%3E%3C%2FmxGraphModel%3E&lt;/span&gt;&lt;span style=&quot;color: rgba(0 , 0 , 0 , 0) ; font-family: monospace ; font-size: 0px&quot;&gt;%3CmxGraphModel%3E%3Croot%3E%3CmxCell%20id%3D%220%22%2F%3E%3CmxCell%20id%3D%221%22%20parent%3D%220%22%2F%3E%3CmxCell%20id%3D%222%22%20value%3D%22Employee%26lt%3Bbr%26gt%3B%26amp%3Blt%3BPayroll%26amp%3Bgt%3B%22%20style%3D%22shape%3DumlActor%3BverticalLabelPosition%3Dbottom%3BverticalAlign%3Dtop%3Bhtml%3D1%3BoutlineConnect%3D0%3BfillColor%3Dnone%3B%22%20vertex%3D%221%22%20parent%3D%221%22%3E%3CmxGeometry%20x%3D%22454%22%20y%3D%22700%22%20width%3D%2215%22%20height%3D%2230%22%20as%3D%22geometry%22%2F%3E%3C%2FmxCell%3E%3C%2Froot%3E%3C%2FmxGraphModel%3E&lt;/span&gt;" style="shape=umlActor;verticalLabelPosition=bottom;verticalAlign=top;html=1;outlineConnect=0;fillColor=none;" vertex="1" parent="1">
          <mxGeometry x="575" y="860" width="15" height="30" as="geometry" />
        </mxCell>
        <mxCell id="lPsyVJBVWEcAc62OBKdZ-68" value="Doctor&lt;span style=&quot;color: rgba(0 , 0 , 0 , 0) ; font-family: monospace ; font-size: 0px&quot;&gt;%3CmxGraphModel%3E%3Croot%3E%3CmxCell%20id%3D%220%22%2F%3E%3CmxCell%20id%3D%221%22%20parent%3D%220%22%2F%3E%3CmxCell%20id%3D%222%22%20value%3D%22Employee%26lt%3Bbr%26gt%3B%26amp%3Blt%3BPayroll%26amp%3Bgt%3B%22%20style%3D%22shape%3DumlActor%3BverticalLabelPosition%3Dbottom%3BverticalAlign%3Dtop%3Bhtml%3D1%3BoutlineConnect%3D0%3BfillColor%3Dnone%3B%22%20vertex%3D%221%22%20parent%3D%221%22%3E%3CmxGeometry%20x%3D%22454%22%20y%3D%22700%22%20width%3D%2215%22%20height%3D%2230%22%20as%3D%22geometry%22%2F%3E%3C%2FmxCell%3E%3C%2Froot%3E%3C%2FmxGraphModel%3E&lt;/span&gt;&lt;span style=&quot;color: rgba(0 , 0 , 0 , 0) ; font-family: monospace ; font-size: 0px&quot;&gt;%3CmxGraphModel%3E%3Croot%3E%3CmxCell%20id%3D%220%22%2F%3E%3CmxCell%20id%3D%221%22%20parent%3D%220%22%2F%3E%3CmxCell%20id%3D%222%22%20value%3D%22Employee%26lt%3Bbr%26gt%3B%26amp%3Blt%3BPayroll%26amp%3Bgt%3B%22%20style%3D%22shape%3DumlActor%3BverticalLabelPosition%3Dbottom%3BverticalAlign%3Dtop%3Bhtml%3D1%3BoutlineConnect%3D0%3BfillColor%3Dnone%3B%22%20vertex%3D%221%22%20parent%3D%221%22%3E%3CmxGeometry%20x%3D%22454%22%20y%3D%22700%22%20width%3D%2215%22%20height%3D%2230%22%20as%3D%22geometry%22%2F%3E%3C%2FmxCell%3E%3C%2Froot%3E%3C%2FmxGraphModel%3E&lt;/span&gt;" style="shape=umlActor;verticalLabelPosition=bottom;verticalAlign=top;html=1;outlineConnect=0;fillColor=none;" vertex="1" parent="1">
          <mxGeometry x="585" y="870" width="15" height="30" as="geometry" />
        </mxCell>
        <mxCell id="lPsyVJBVWEcAc62OBKdZ-69" value="Doctor&lt;span style=&quot;color: rgba(0 , 0 , 0 , 0) ; font-family: monospace ; font-size: 0px&quot;&gt;%3CmxGraphModel%3E%3Croot%3E%3CmxCell%20id%3D%220%22%2F%3E%3CmxCell%20id%3D%221%22%20parent%3D%220%22%2F%3E%3CmxCell%20id%3D%222%22%20value%3D%22Employee%26lt%3Bbr%26gt%3B%26amp%3Blt%3BPayroll%26amp%3Bgt%3B%22%20style%3D%22shape%3DumlActor%3BverticalLabelPosition%3Dbottom%3BverticalAlign%3Dtop%3Bhtml%3D1%3BoutlineConnect%3D0%3BfillColor%3Dnone%3B%22%20vertex%3D%221%22%20parent%3D%221%22%3E%3CmxGeometry%20x%3D%22454%22%20y%3D%22700%22%20width%3D%2215%22%20height%3D%2230%22%20as%3D%22geometry%22%2F%3E%3C%2FmxCell%3E%3C%2Froot%3E%3C%2FmxGraphModel%3E&lt;/span&gt;&lt;span style=&quot;color: rgba(0 , 0 , 0 , 0) ; font-family: monospace ; font-size: 0px&quot;&gt;%3CmxGraphModel%3E%3Croot%3E%3CmxCell%20id%3D%220%22%2F%3E%3CmxCell%20id%3D%221%22%20parent%3D%220%22%2F%3E%3CmxCell%20id%3D%222%22%20value%3D%22Employee%26lt%3Bbr%26gt%3B%26amp%3Blt%3BPayroll%26amp%3Bgt%3B%22%20style%3D%22shape%3DumlActor%3BverticalLabelPosition%3Dbottom%3BverticalAlign%3Dtop%3Bhtml%3D1%3BoutlineConnect%3D0%3BfillColor%3Dnone%3B%22%20vertex%3D%221%22%20parent%3D%221%22%3E%3CmxGeometry%20x%3D%22454%22%20y%3D%22700%22%20width%3D%2215%22%20height%3D%2230%22%20as%3D%22geometry%22%2F%3E%3C%2FmxCell%3E%3C%2Froot%3E%3C%2FmxGraphModel%3E&lt;/span&gt;" style="shape=umlActor;verticalLabelPosition=bottom;verticalAlign=top;html=1;outlineConnect=0;fillColor=none;" vertex="1" parent="1">
          <mxGeometry x="595" y="880" width="15" height="30" as="geometry" />
        </mxCell>
        <mxCell id="lPsyVJBVWEcAc62OBKdZ-70" value="Doctor&lt;span style=&quot;color: rgba(0 , 0 , 0 , 0) ; font-family: monospace ; font-size: 0px&quot;&gt;%3CmxGraphModel%3E%3Croot%3E%3CmxCell%20id%3D%220%22%2F%3E%3CmxCell%20id%3D%221%22%20parent%3D%220%22%2F%3E%3CmxCell%20id%3D%222%22%20value%3D%22Employee%26lt%3Bbr%26gt%3B%26amp%3Blt%3BPayroll%26amp%3Bgt%3B%22%20style%3D%22shape%3DumlActor%3BverticalLabelPosition%3Dbottom%3BverticalAlign%3Dtop%3Bhtml%3D1%3BoutlineConnect%3D0%3BfillColor%3Dnone%3B%22%20vertex%3D%221%22%20parent%3D%221%22%3E%3CmxGeometry%20x%3D%22454%22%20y%3D%22700%22%20width%3D%2215%22%20height%3D%2230%22%20as%3D%22geometry%22%2F%3E%3C%2FmxCell%3E%3C%2Froot%3E%3C%2FmxGraphModel%3E&lt;/span&gt;&lt;span style=&quot;color: rgba(0 , 0 , 0 , 0) ; font-family: monospace ; font-size: 0px&quot;&gt;%3CmxGraphModel%3E%3Croot%3E%3CmxCell%20id%3D%220%22%2F%3E%3CmxCell%20id%3D%221%22%20parent%3D%220%22%2F%3E%3CmxCell%20id%3D%222%22%20value%3D%22Employee%26lt%3Bbr%26gt%3B%26amp%3Blt%3BPayroll%26amp%3Bgt%3B%22%20style%3D%22shape%3DumlActor%3BverticalLabelPosition%3Dbottom%3BverticalAlign%3Dtop%3Bhtml%3D1%3BoutlineConnect%3D0%3BfillColor%3Dnone%3B%22%20vertex%3D%221%22%20parent%3D%221%22%3E%3CmxGeometry%20x%3D%22454%22%20y%3D%22700%22%20width%3D%2215%22%20height%3D%2230%22%20as%3D%22geometry%22%2F%3E%3C%2FmxCell%3E%3C%2Froot%3E%3C%2FmxGraphModel%3E&lt;/span&gt;" style="shape=umlActor;verticalLabelPosition=bottom;verticalAlign=top;html=1;outlineConnect=0;fillColor=none;" vertex="1" parent="1">
          <mxGeometry x="605" y="890" width="15" height="30" as="geometry" />
        </mxCell>
        <mxCell id="lPsyVJBVWEcAc62OBKdZ-77" style="edgeStyle=none;rounded=0;orthogonalLoop=1;jettySize=auto;html=1;exitX=0;exitY=1;exitDx=0;exitDy=0;entryX=0.5;entryY=0;entryDx=0;entryDy=0;entryPerimeter=0;" edge="1" parent="1" source="lPsyVJBVWEcAc62OBKdZ-73" target="lPsyVJBVWEcAc62OBKdZ-75">
          <mxGeometry relative="1" as="geometry" />
        </mxCell>
        <mxCell id="lPsyVJBVWEcAc62OBKdZ-78" style="edgeStyle=none;rounded=0;orthogonalLoop=1;jettySize=auto;html=1;exitX=0.5;exitY=1;exitDx=0;exitDy=0;entryX=0.5;entryY=0;entryDx=0;entryDy=0;entryPerimeter=0;" edge="1" parent="1" source="lPsyVJBVWEcAc62OBKdZ-73" target="lPsyVJBVWEcAc62OBKdZ-76">
          <mxGeometry relative="1" as="geometry" />
        </mxCell>
        <mxCell id="lPsyVJBVWEcAc62OBKdZ-73" value="Insurance" style="ellipse;whiteSpace=wrap;html=1;aspect=fixed;fillColor=none;" vertex="1" parent="1">
          <mxGeometry x="132.5" y="930" width="90" height="90" as="geometry" />
        </mxCell>
        <mxCell id="lPsyVJBVWEcAc62OBKdZ-75" value="TP" style="shape=umlActor;verticalLabelPosition=bottom;verticalAlign=top;html=1;outlineConnect=0;fillColor=none;" vertex="1" parent="1">
          <mxGeometry x="50" y="1100" width="15" height="30" as="geometry" />
        </mxCell>
        <mxCell id="lPsyVJBVWEcAc62OBKdZ-76" value="AIA" style="shape=umlActor;verticalLabelPosition=bottom;verticalAlign=top;html=1;outlineConnect=0;fillColor=none;" vertex="1" parent="1">
          <mxGeometry x="130" y="1100" width="15" height="30" as="geometry" />
        </mxCell>
      </root>
    </mxGraphModel>
  </diagram>
</mxfile>
